<?xml version="1.0" standalone="no"?>
<!DOCTYPE svg PUBLIC "-//W3C//DTD SVG 20010904//EN"
 "http://www.w3.org/TR/2001/REC-SVG-20010904/DTD/svg10.dtd">
<svg version="1.0" xmlns="http://www.w3.org/2000/svg"
 width="381.000000pt" height="396.000000pt" viewBox="0 0 381.000000 396.000000"
 preserveAspectRatio="xMidYMid meet">

<g transform="translate(0.000000,396.000000) scale(0.100000,-0.100000)"
fill="#000000" stroke="none">
<path d="M1986 3895 c-3 -9 -6 -31 -6 -48 0 -51 -10 -75 -33 -81 -34 -9 -47
11 -47 75 0 57 -11 77 -24 43 -11 -28 -6 -120 6 -132 7 -7 35 -12 64 -12 l51
0 7 38 c8 52 7 105 -3 120 -7 11 -10 10 -15 -3z"/>
<path d="M1604 3879 c-3 -6 -3 -45 1 -86 l7 -75 54 4 c78 7 88 20 79 102 l-7
66 -63 0 c-35 0 -67 -5 -71 -11z m102 -43 c8 -35 1 -67 -18 -79 -25 -16 -48 9
-48 53 0 43 5 50 36 50 17 0 25 -7 30 -24z"/>
<path d="M2141 3830 c-16 -72 -14 -87 11 -104 27 -19 62 -20 91 -4 20 12 19
13 -23 18 -44 5 -45 6 -48 43 -2 21 2 45 9 53 13 16 55 19 64 4 9 -15 35 -12
35 5 0 21 -33 35 -84 35 l-44 0 -11 -50z"/>
<path d="M1381 3837 c-19 -7 -39 -20 -45 -29 -15 -24 13 -107 45 -130 24 -18
28 -18 62 -4 43 18 53 46 37 104 -11 43 -33 72 -53 71 -7 0 -27 -5 -46 -12z
m59 -46 c27 -52 1 -109 -39 -84 -24 15 -37 69 -21 88 17 21 47 19 60 -4z"/>
<path d="M2420 3822 c0 -6 10 -18 22 -26 l22 -16 -21 -65 c-12 -36 -18 -67
-13 -70 10 -6 36 25 45 55 12 42 34 70 55 70 52 0 -4 42 -73 55 -24 5 -37 3
-37 -3z"/>
<path d="M1108 3739 c-21 -11 -38 -26 -38 -34 0 -21 49 -122 66 -136 12 -9 14
-4 14 30 0 46 10 50 47 21 14 -11 34 -20 45 -20 19 0 19 0 0 28 -10 15 -22 45
-25 67 -10 65 -44 79 -109 44z m70 -31 c-7 -20 -51 -39 -63 -27 -7 7 -4 15 9
25 24 17 59 19 54 2z"/>
<path d="M2696 3699 c18 -20 18 -21 -1 -57 -15 -27 -28 -38 -47 -40 -16 -2
-28 -7 -28 -12 0 -15 49 -48 81 -55 35 -8 52 2 26 16 -22 13 -22 36 3 77 15
25 26 32 50 32 19 0 29 4 25 10 -10 16 -82 50 -106 50 -22 0 -22 0 -3 -21z"/>
<path d="M879 3607 c-24 -13 -45 -30 -47 -38 -1 -8 12 -38 30 -68 48 -79 91
-100 65 -32 -11 31 -10 34 21 60 28 22 32 31 27 54 -6 23 -31 47 -48 47 -2 0
-24 -10 -48 -23z m54 -24 c9 -9 -22 -43 -40 -43 -18 0 -17 15 3 34 17 17 27
20 37 9z"/>
<path d="M2881 3528 c-17 -23 -31 -50 -31 -61 0 -25 53 -77 78 -77 22 0 91 74
93 99 4 49 -27 80 -78 81 -25 0 -37 -8 -62 -42z m100 -4 c11 -13 11 -20 -1
-41 -8 -14 -24 -32 -36 -40 -18 -12 -24 -11 -43 4 l-22 18 26 38 c27 39 54 47
76 21z"/>
<path d="M3091 3368 c-23 -24 -47 -51 -52 -60 -17 -31 18 -21 60 17 l39 35 6
-36 c6 -27 2 -44 -14 -71 -33 -56 -14 -52 50 12 59 58 75 83 45 71 -8 -3 -21
-9 -29 -12 -11 -4 -16 5 -18 38 -4 60 -30 62 -87 6z"/>
<path d="M483 3258 c-30 -33 -57 -78 -50 -84 3 -3 14 0 25 7 18 11 27 8 76
-26 31 -21 59 -35 64 -31 4 4 -17 30 -47 57 -50 47 -52 51 -37 68 9 10 16 21
16 24 0 15 -28 6 -47 -15z"/>
<path d="M330 3040 c0 -5 11 -17 25 -26 30 -19 30 -25 7 -54 -16 -19 -21 -20
-45 -9 -15 7 -30 9 -33 6 -12 -12 19 -38 77 -68 59 -29 85 -26 49 6 -42 38
-13 85 41 66 40 -14 39 -14 33 4 -3 8 -31 31 -62 50 -55 34 -92 45 -92 25z"/>
<path d="M185 2770 c-33 -64 -14 -95 75 -121 41 -13 43 -12 66 15 35 40 32 82
-8 106 -42 26 -47 25 -59 -7 -13 -36 3 -53 30 -29 18 17 19 17 25 -2 8 -23 -1
-49 -18 -55 -20 -8 -96 30 -96 48 0 9 11 26 25 39 26 24 24 36 -6 36 -10 0
-25 -13 -34 -30z"/>
<path d="M102 2518 c-17 -52 -18 -91 -5 -95 7 -3 16 2 19 11 4 10 18 16 41 16
45 0 73 -16 73 -40 0 -29 16 -24 28 8 32 79 24 125 -12 79 -21 -26 -23 -27
-66 -14 -37 11 -45 17 -45 37 0 36 -22 35 -33 -2z"/>
<path d="M2044 2532 c-14 -9 -265 -1185 -255 -1195 22 -22 46 65 150 548 145
673 137 633 125 645 -5 5 -14 6 -20 2z"/>
<path d="M66 2254 c-20 -20 -21 -88 -1 -104 8 -6 41 -14 75 -17 l60 -6 16 38
c19 47 12 78 -21 93 -38 17 -111 15 -129 -4z m45 -71 c-6 -13 -16 -21 -21 -18
-14 9 -13 48 2 63 19 19 33 -14 19 -45z m79 17 c0 -16 -5 -32 -10 -35 -15 -9
-29 37 -18 58 13 24 28 12 28 -23z"/>
<path d="M2267 2263 c-18 -17 3 -45 139 -183 l147 -150 -147 -150 c-138 -142
-166 -180 -131 -180 9 0 90 73 180 162 l165 161 -77 80 c-145 150 -270 267
-276 260z"/>
<path d="M1409 2101 c-87 -88 -159 -165 -159 -172 0 -7 71 -83 158 -171 142
-142 192 -181 192 -146 0 6 -67 80 -150 163 l-150 151 81 79 c100 99 219 232
219 245 0 31 -49 -7 -191 -149z"/>
<path d="M3673 2188 c-4 -7 -8 -30 -8 -52 0 -49 -28 -72 -51 -42 -19 26 -18
55 4 79 16 19 16 20 -5 8 -12 -6 -24 -19 -27 -28 -9 -28 8 -75 32 -91 19 -13
23 -12 47 12 18 19 25 36 25 66 0 36 3 40 24 40 13 0 27 -7 30 -16 9 -24 7
-62 -4 -69 -5 -3 -10 -12 -10 -18 1 -7 10 -1 21 13 36 43 8 110 -47 110 -13 0
-26 -6 -31 -12z"/>
<path d="M3617 1923 c-4 -3 -7 -33 -7 -65 l0 -58 66 0 c65 0 66 0 44 18 -29
24 -20 56 22 78 35 18 32 29 -5 15 -19 -8 -28 -6 -37 5 -13 14 -71 20 -83 7z
m66 -46 c8 -31 6 -42 -7 -55 -35 -35 -72 29 -46 78 17 32 43 20 53 -23z"/>
<path d="M3596 1672 c-3 -5 -8 -27 -12 -49 -5 -36 -3 -43 17 -57 27 -17 140
-38 150 -28 13 13 22 115 10 108 -6 -4 -11 -16 -11 -26 0 -10 -4 -30 -9 -43
-8 -20 -15 -24 -36 -19 -26 5 -27 7 -21 49 7 52 -10 50 -20 -2 -8 -43 -17 -49
-45 -34 -19 10 -21 17 -15 60 6 46 4 60 -8 41z"/>
<path d="M3549 1420 c-8 -5 -21 -27 -29 -49 -17 -53 -7 -64 76 -87 64 -17 100
-14 51 5 -29 11 -37 31 -35 84 1 20 -1 39 -3 41 -12 10 -46 14 -60 6z m45 -26
c11 -29 6 -75 -8 -80 -8 -3 -24 0 -36 6 -17 9 -20 17 -15 38 12 49 46 70 59
36z"/>
<path d="M3435 1149 c-26 -50 -17 -71 48 -103 70 -35 98 -28 117 29 14 43 6
57 -51 86 -58 29 -95 25 -114 -12z m105 1 c49 -25 55 -35 40 -70 -17 -40 -36
-44 -89 -18 -49 25 -61 50 -41 87 14 26 40 26 90 1z"/>
<path d="M448 1011 c-61 -39 -73 -62 -54 -99 20 -39 42 -56 63 -47 16 6 14 9
-8 17 -23 8 -49 44 -49 68 0 15 73 60 97 60 26 0 53 -35 53 -69 0 -18 3 -22
11 -14 6 6 8 20 4 32 -7 23 -53 81 -64 81 -4 0 -28 -13 -53 -29z"/>
<path d="M3280 882 c0 -11 114 -92 128 -92 12 0 72 70 72 84 0 6 -15 -4 -33
-22 -39 -38 -51 -39 -91 -9 -42 33 -76 50 -76 39z"/>
<path d="M596 791 l-50 -50 36 5 c30 5 37 3 42 -14 4 -12 0 -34 -9 -52 -22
-42 -13 -49 15 -11 13 19 30 31 44 31 13 0 31 9 41 20 17 19 17 21 -11 67 -17
26 -36 49 -44 51 -9 1 -37 -20 -64 -47z m93 -7 c24 -31 27 -52 7 -60 -19 -7
-64 22 -71 47 -14 44 32 54 64 13z"/>
<path d="M3145 740 l-39 -40 64 -65 64 -64 32 37 c43 48 43 65 1 24 -32 -31
-34 -32 -50 -14 -23 25 -21 34 8 62 35 33 22 38 -15 6 -38 -31 -56 -33 -70 -6
-8 16 -5 26 21 55 44 50 31 53 -16 5z"/>
<path d="M771 591 c-28 -33 -51 -63 -50 -68 0 -12 81 -74 88 -68 3 3 -9 20
-27 36 -34 32 -37 46 -10 63 12 7 25 3 52 -18 44 -33 48 -18 5 18 -54 46 -15
84 46 46 20 -12 38 -20 41 -17 6 6 -70 67 -83 67 -6 0 -33 -27 -62 -59z"/>
<path d="M3010 597 c0 -3 11 -27 25 -53 27 -50 33 -104 13 -104 -21 0 -81 40
-105 69 -11 14 -25 23 -29 18 -21 -20 117 -117 149 -104 23 9 22 61 -2 112
-16 35 -51 78 -51 62z"/>
<path d="M1004 446 c-38 -33 -83 -96 -68 -96 4 0 16 8 26 17 18 16 22 16 46 2
16 -9 29 -26 33 -44 l5 -30 22 35 c12 19 24 54 28 79 6 36 3 47 -12 58 -26 19
-36 17 -80 -21z m71 4 c4 -6 4 -28 0 -50 l-7 -40 -36 16 c-56 23 -57 30 -16
58 43 29 50 31 59 16z"/>
<path d="M2753 434 c-24 -14 -43 -31 -43 -38 0 -20 54 -119 71 -129 11 -7 29
-3 64 12 58 26 54 38 -7 18 -67 -23 -98 17 -38 51 16 9 30 20 30 25 0 10 -7 9
-42 -9 -30 -15 -32 -15 -45 2 -19 26 -17 28 27 58 65 43 51 51 -17 10z"/>
<path d="M1266 356 c19 -14 19 -15 0 -63 -31 -80 -28 -102 4 -35 19 39 39 66
53 71 21 8 19 10 -17 25 -47 20 -66 21 -40 2z"/>
<path d="M2488 314 l-28 -14 19 -51 c33 -85 48 -102 84 -95 51 10 70 34 63 79
-4 22 -13 52 -22 68 -12 24 -21 29 -52 29 -20 -1 -49 -7 -64 -16z m97 -20 c27
-41 32 -94 10 -110 -37 -28 -61 -17 -84 35 -26 62 -26 66 1 85 32 23 53 20 73
-10z"/>
<path d="M1485 280 c3 -5 13 -10 21 -10 19 0 18 -35 -2 -93 -13 -40 -20 -47
-42 -48 -25 0 -25 -1 8 -14 46 -18 78 -19 62 -3 -26 26 0 138 32 138 30 0 16
19 -21 29 -48 14 -66 14 -58 1z"/>
<path d="M1975 153 c4 -43 8 -84 10 -90 5 -15 55 -18 55 -3 0 6 -9 10 -20 10
-16 0 -20 7 -20 30 0 20 5 30 15 30 8 0 15 5 15 10 0 6 -7 10 -15 10 -23 0
-20 60 3 61 14 0 14 2 -3 9 -44 19 -46 14 -40 -67z"/>
<path d="M1826 168 c-10 -29 -25 -63 -34 -76 -13 -20 -17 -21 -30 -9 -8 9 -21
39 -28 69 l-14 53 3 -58 c3 -43 9 -64 25 -79 l21 -21 29 31 c28 30 58 109 51
131 -3 7 -13 -12 -23 -41z"/>
</g>
</svg>
